<?xml version="1.0" encoding="UTF-8"?>
<svg version="1.1" xmlns="http://www.w3.org/2000/svg" width="16" height="16">
<path d="M0 0 C5.28 0 10.56 0 16 0 C16 5.28 16 10.56 16 16 C10.72 16 5.44 16 0 16 C0 10.72 0 5.44 0 0 Z M1 2 C1 2.66 1 3.32 1 4 C5.62 4 10.24 4 15 4 C15 3.34 15 2.68 15 2 C10.38 2 5.76 2 1 2 Z M1 6 C1 6.66 1 7.32 1 8 C1.99 8 2.98 8 4 8 C4 7.34 4 6.68 4 6 C3.01 6 2.02 6 1 6 Z M5 6 C5 6.66 5 7.32 5 8 C5.66 8 6.32 8 7 8 C7 7.34 7 6.68 7 6 C6.34 6 5.68 6 5 6 Z M9 6 C9 6.66 9 7.32 9 8 C9.66 8 10.32 8 11 8 C11 7.34 11 6.68 11 6 C10.34 6 9.68 6 9 6 Z M12 6 C12 6.66 12 7.32 12 8 C12.99 8 13.98 8 15 8 C15 7.34 15 6.68 15 6 C14.01 6 13.02 6 12 6 Z M1 9 C1 9.66 1 10.32 1 11 C1.99 11 2.98 11 4 11 C4 10.34 4 9.68 4 9 C3.01 9 2.02 9 1 9 Z M5 9 C5 9.66 5 10.32 5 11 C5.66 11 6.32 11 7 11 C7 10.34 7 9.68 7 9 C6.34 9 5.68 9 5 9 Z M9 9 C9 9.66 9 10.32 9 11 C9.66 11 10.32 11 11 11 C11 10.34 11 9.68 11 9 C10.34 9 9.68 9 9 9 Z M12 9 C12 9.66 12 10.32 12 11 C12.99 11 13.98 11 15 11 C15 10.34 15 9.68 15 9 C14.01 9 13.02 9 12 9 Z M1 12 C1 12.66 1 13.32 1 14 C1.99 14 2.98 14 4 14 C4 13.34 4 12.68 4 12 C3.01 12 2.02 12 1 12 Z M5 12 C5 12.66 5 13.32 5 14 C5.66 14 6.32 14 7 14 C7 13.34 7 12.68 7 12 C6.34 12 5.68 12 5 12 Z M9 12 C9 12.66 9 13.32 9 14 C9.66 14 10.32 14 11 14 C11 13.34 11 12.68 11 12 C10.34 12 9.68 12 9 12 Z M12 12 C12 12.66 12 13.32 12 14 C12.99 14 13.98 14 15 14 C15 13.34 15 12.68 15 12 C14.01 12 13.02 12 12 12 Z " fill="#000000" transform="translate(0,0)"/>
</svg>
