<svg width="52" height="52" viewBox="0 0 52 52" fill="none" xmlns="http://www.w3.org/2000/svg">
<path d="M25.5368 0.0127495C18.6368 13.5127 11.6368 26.9128 4.63681 40.3128C-0.0631905 34.3128 -1.96319 23.7127 2.63681 14.4127C7.23681 4.71275 17.4368 -0.287251 25.5368 0.0127495Z" fill="url(#paint0_linear_220_54)"/>
<path d="M46.4368 40.3128C43.9368 35.5128 41.4368 30.7128 38.9368 25.9128L42.9368 25.7127H49.7368L38.1368 24.6128C33.9368 16.4128 29.7368 8.21275 25.4368 0.0127495C33.5368 -0.287251 43.7368 4.71275 48.3368 14.4127C53.0368 23.7127 51.1368 34.3128 46.4368 40.3128Z" fill="url(#paint1_linear_220_54)"/>
<path d="M43.1368 44.6128C34.1368 53.6128 18.1368 54.2128 8.23682 44.8128C16.1368 41.7128 24.4368 40.7128 33.0368 42.1128C32.0368 39.8128 31.3368 37.8128 30.4368 35.8128C30.3368 35.6128 29.6368 35.4128 29.3368 35.4128C25.5368 35.4128 21.9368 35.4128 18.2368 35.3128C17.4368 35.3128 16.7368 35.2128 15.6368 35.1128C17.3368 33.1128 19.1368 31.5128 21.4368 30.5128C24.1368 29.3128 27.0368 28.5128 29.8368 27.5128C30.4368 27.3128 30.9368 27.5128 31.2368 28.3128C33.6368 32.9128 35.9368 37.4128 38.3368 41.9128C38.7368 42.8128 39.4368 43.3128 40.2368 43.6128C41.2368 43.7128 42.0368 44.2128 43.1368 44.6128Z" fill="url(#paint2_linear_220_54)"/>
<path d="M29.6368 25.1128C26.2368 26.0128 23.0368 26.8128 19.7368 27.6128C21.5368 24.3128 23.5368 20.7128 25.4368 17.1128C26.8368 19.8128 28.2368 22.5128 29.6368 25.1128Z" fill="url(#paint3_linear_220_54)"/>
<defs>
<linearGradient id="paint0_linear_220_54" x1="12.7668" y1="0.58275" x2="12.7668" y2="48.3028" gradientUnits="userSpaceOnUse">
<stop stop-color="#4400CE"/>
<stop offset="1" stop-color="#290660"/>
</linearGradient>
<linearGradient id="paint1_linear_220_54" x1="38.2468" y1="0.58275" x2="38.2468" y2="48.3028" gradientUnits="userSpaceOnUse">
<stop stop-color="#4400CE"/>
<stop offset="1" stop-color="#290660"/>
</linearGradient>
<linearGradient id="paint2_linear_220_54" x1="25.6868" y1="0.582806" x2="25.6868" y2="48.3028" gradientUnits="userSpaceOnUse">
<stop stop-color="#4400CE"/>
<stop offset="1" stop-color="#290660"/>
</linearGradient>
<linearGradient id="paint3_linear_220_54" x1="24.6868" y1="0.582793" x2="24.6868" y2="48.3028" gradientUnits="userSpaceOnUse">
<stop stop-color="#4400CE"/>
<stop offset="1" stop-color="#290660"/>
</linearGradient>
</defs>
</svg>
